<svg width="578" height="584" viewBox="0 0 578 584" fill="none" xmlns="http://www.w3.org/2000/svg">
<path d="M456.569 407.142L402.163 379.887C401.66 379.636 401.05 379.847 400.81 380.355L391.57 399.959C391.279 400.576 391.678 401.297 392.355 401.378L456.001 409.029C457.115 409.163 457.571 407.644 456.569 407.142Z" fill="#63512E" stroke="#63512E" stroke-width="7"/>
<path d="M161.527 439.635L164.179 429.041L151.256 420.425C147.949 427.754 148.164 437.115 148.684 440.88L157.291 457.973C159.094 461.516 164.071 469.393 167.897 471.602C171.361 473.602 172.028 472.448 172.178 471.187C171.996 456.302 165.002 443.95 161.527 439.635Z" fill="#63512E" stroke="#63512E"/>
<path d="M226.046 490.826C203.442 486.329 200.234 457.593 206.054 447.512L214.233 451.012C210.927 461.934 219.4 478.435 226.812 486.38C229.507 489.268 227.387 490.582 226.046 490.826Z" fill="#63512E" stroke="#63512E"/>
<path d="M272.018 487.26C267.543 478.211 270.347 467.821 272.308 463.757L284.518 465.61C280.825 470.406 280.122 477.89 280.232 481.033C284.089 487.686 291.339 501.995 289.485 506.006C287.632 510.016 284.082 507.697 282.539 506.037C280.896 503.549 276.492 496.31 272.018 487.26Z" fill="#63512E" stroke="#63512E"/>
<path opacity="0.8" d="M277.585 58.6169C307.93 51.6571 329.946 105.591 337.161 133.428L337.449 134.172C311.251 145.953 281.568 173.087 269.265 186.027L268.582 186.21L256.571 140.015C250.931 115.782 247.24 65.5766 277.585 58.6169Z" fill="#D9F8FF" stroke="#5BF3E1" stroke-width="4"/>
<path opacity="0.8" d="M343.308 131.781C315.827 141.78 282.496 172.111 269.265 186.027C301.471 195.845 338.976 222.618 353.703 234.777L385.121 226.358C400.686 222.066 434.055 203.803 443.009 165.094C451.963 126.385 423.107 117.231 407.56 117.493C397.593 118.089 370.789 121.782 343.308 131.781Z" fill="#D9F8FF" stroke="#5BF3E1" stroke-width="4"/>
<path d="M126.794 189.796C101.026 202.3 86.248 223.683 80.7665 235.201C80.2857 236.212 79.7577 237.19 79.1599 238.136C64.5272 261.289 60.6973 288.498 60.6286 299.397C61.0137 310.397 67.422 339.23 89.9741 366.569C112.526 393.908 142.913 413.876 155.287 420.443C168.644 429.309 206.359 449.584 250.372 459.752C294.384 469.921 340.83 451.741 358.551 441.38C370.091 435.726 395.597 411.615 405.301 360.407C415.005 309.198 388.823 267.947 374.519 253.723C358.361 238.043 316.657 203.342 279.109 189.978C232.174 173.272 232.705 179.352 205.304 176.811C186.103 175.031 171.19 177.587 164.139 179.636C162.453 180.126 160.74 180.541 158.998 180.76C144.686 182.553 131.677 186.992 126.794 189.796Z" fill="#FFE925" stroke="#63512E" stroke-width="7"/>
<path d="M162.513 424.001L162.465 424.01L186.281 437.76C207.307 423.342 224.356 396.812 258.539 338.605C285.885 292.04 290.201 247.766 289.589 231.825C293.558 217.95 287.373 200.33 283.622 193.161L250.244 181.973C259.05 187.519 264.412 203.432 265.993 210.695C267.266 221.823 265.682 255.434 249.156 300.857C232.631 346.279 202.937 387.91 190.156 403.048C176.784 421.225 167.511 423.029 162.513 424.001Z" fill="#63512E" stroke="#63512E" stroke-width="4"/>
<path d="M330.38 347.174C364.034 288.084 361.594 250.11 355.917 238.942L374.452 254.839C383.236 287.624 369.767 317.952 347.049 364.303C328.873 401.383 291.104 444.202 274.491 460.976L244.425 458.051C283.917 436.049 318.183 374.965 330.38 347.174Z" fill="#63512E" stroke="#63512E" stroke-width="4"/>
<path d="M85.0365 265.962C86.922 267.946 89.3443 268.423 91.3229 268.309C93.0413 268.211 94.5442 267.138 95.4167 265.654C98.299 260.752 95.1707 258.187 92.2649 257.207C91.4144 256.92 90.4965 256.873 89.6162 257.049C85.9107 257.787 84.4035 260.15 83.937 262.189C83.6281 263.538 84.0827 264.958 85.0365 265.962Z" fill="#63512E" stroke="#63512E" stroke-width="4"/>
<path d="M152.376 297.142C152.964 298.44 153.769 299.343 154.673 299.951C158.212 302.331 163.886 299.781 163.905 295.515C163.934 289.066 158.766 289.084 156.178 289.899C153.246 291.152 152.243 293.469 152.026 295.081C151.932 295.784 152.084 296.495 152.376 297.142Z" fill="#63512E" stroke="#63512E" stroke-width="4"/>
<path d="M98.9681 282.052C102.989 287.794 113.816 298.116 126.295 295.92M128.38 295.438C127.68 295.639 126.985 295.799 126.295 295.92M126.295 295.92C121.634 298.277 110.333 299.954 102.419 287.804" stroke="#63512E" stroke-width="6" stroke-linecap="round"/>
</svg>
