<svg width="467" height="444" viewBox="0 0 467 444" fill="none" xmlns="http://www.w3.org/2000/svg">
<path d="M313.695 224.554L232.195 243.554L223.695 220.055C245.295 189.255 253.028 81.5546 254.195 31.5545C251.695 19.5545 236.695 -2.54551 196.695 5.05449C146.695 14.5545 117.195 60.5545 108.695 90.0545C101.895 113.654 109.195 161.554 113.695 182.554C101.295 180.554 82.5284 181.721 74.6951 182.554C25.4951 191.754 7.19506 225.388 4.19506 241.054C1.36172 253.888 5.69506 283.054 45.6951 297.054C85.6951 311.054 131.695 298.888 149.695 291.054C126.095 318.654 121.862 346.221 122.695 356.554C123.028 378.388 130.195 424.554 156.195 434.554C188.695 447.054 208.695 435.554 234.695 413.554C255.495 395.954 255.028 362.221 252.195 347.554C267.795 358.354 291.362 365.054 301.195 367.054C325.695 374.054 383.195 380.554 417.195 350.554C459.695 313.054 464.195 287.054 463.195 269.554C462.395 255.554 447.862 246.388 440.695 243.554C400.295 221.954 339.195 221.888 313.695 224.554Z" fill="#E5B437" stroke="#B5671E" stroke-width="7"/>
<path d="M252.195 227.554C235.195 244.554 184.895 286.654 119.695 319.054C111.195 322.554 96.8951 325.754 107.695 310.554C118.495 295.354 151.862 266.221 167.195 253.554C181.195 242.888 214.995 220.054 238.195 214.054C237.195 208.221 237.795 195.154 248.195 189.554C255.986 185.359 263.702 186.14 268.695 187.777C281.695 172.703 309.195 139.854 315.195 129.054C315.695 123.888 317.995 113.754 323.195 114.554C329.695 115.554 329.695 121.555 328.695 124.055C327.695 126.555 323.695 132.055 322.695 132.555C316.528 142.344 298.595 168.037 276.195 192.489C277.344 193.652 278.474 195.016 279.464 196.555C297.207 181.221 334.395 148.055 341.195 138.055C341.362 136.221 342.495 132.555 345.695 132.555C348.895 132.555 351.195 135.785 351.195 138.055C351.195 140.055 348.395 143.055 347.195 143.055C345.695 143.055 322.611 176.055 282.153 202.555C283.481 207.561 282.888 213.557 278.195 220.054C274.528 224.221 264.195 231.554 252.195 227.554Z" fill="#825A37"/>
<path d="M268.695 187.777C263.702 186.14 255.986 185.359 248.195 189.554C237.795 195.154 237.195 208.221 238.195 214.054C214.995 220.054 181.195 242.888 167.195 253.554C151.862 266.221 118.495 295.354 107.695 310.554C96.8951 325.754 111.195 322.554 119.695 319.054C184.895 286.654 235.195 244.554 252.195 227.554C264.195 231.554 274.528 224.221 278.195 220.054C282.888 213.557 283.481 207.561 282.153 202.555M268.695 187.777C270.367 188.325 271.733 188.969 272.695 189.554C273.793 190.296 275.005 191.285 276.195 192.489M268.695 187.777C281.695 172.703 309.195 139.854 315.195 129.054C315.695 123.888 317.995 113.754 323.195 114.554C329.695 115.554 329.695 121.555 328.695 124.055C327.695 126.555 323.695 132.055 322.695 132.555C316.528 142.344 298.595 168.037 276.195 192.489M276.195 192.489C277.344 193.652 278.474 195.016 279.464 196.555M279.464 196.555C297.207 181.221 334.395 148.055 341.195 138.055C341.362 136.221 342.495 132.555 345.695 132.555C348.895 132.555 351.195 135.785 351.195 138.055C351.195 140.055 348.395 143.055 347.195 143.055C345.695 143.055 322.611 176.055 282.153 202.555M279.464 196.555C280.609 198.335 281.567 200.349 282.153 202.555" stroke="#825A37"/>
</svg>
