<svg width="435" height="414" viewBox="0 0 435 414" fill="none" xmlns="http://www.w3.org/2000/svg">
<path d="M142.767 209.26L218.628 226.945L226.54 205.071C206.434 176.402 199.236 76.1539 198.15 29.6132C200.477 18.4435 214.439 -2.12748 251.672 4.94669C298.212 13.7894 325.671 56.6067 333.583 84.0657C339.913 106.033 333.118 150.619 328.929 170.166C340.471 168.304 357.939 169.39 365.231 170.166C411.027 178.729 428.06 210.035 430.853 224.618C433.49 236.564 429.457 263.712 392.224 276.744C354.992 289.775 312.174 278.45 295.42 271.159C317.387 296.849 321.327 322.509 320.552 332.127C320.241 352.45 313.571 395.422 289.369 404.73C259.118 416.365 240.502 405.661 216.301 385.183C196.94 368.801 197.374 337.401 200.012 323.75C185.491 333.802 163.555 340.039 154.402 341.9C131.597 348.416 78.0752 354.466 46.4276 326.542C6.8681 291.637 2.67944 267.435 3.61026 251.146C4.35489 238.115 17.8827 229.582 24.5535 226.945C62.1583 206.84 119.031 206.778 142.767 209.26Z" fill="white" fill-opacity="0.8" stroke="#D5F0FF" stroke-width="7"/>
<path d="M200.012 212.052C215.835 227.876 262.655 267.063 323.344 297.221C331.256 300.479 344.567 303.458 334.514 289.309C324.461 275.161 293.403 248.043 279.131 236.253C266.099 226.325 234.638 205.071 213.043 199.486C213.974 194.056 213.415 181.894 203.735 176.681C196.483 172.776 189.3 173.503 184.653 175.027C172.553 160.996 146.955 130.42 141.37 120.367C140.905 115.558 138.764 106.126 133.924 106.871C127.874 107.801 127.874 113.386 128.805 115.713C129.735 118.041 133.459 123.16 134.389 123.625C140.129 132.738 156.822 156.653 177.672 179.413C176.603 180.495 175.551 181.765 174.63 183.197C158.114 168.925 123.499 138.053 117.169 128.745C117.014 127.038 115.959 123.625 112.981 123.625C110.002 123.625 107.861 126.633 107.861 128.745C107.861 130.606 110.468 133.399 111.584 133.399C112.981 133.399 134.468 164.116 172.127 188.782C170.89 193.442 171.442 199.023 175.811 205.071C179.223 208.949 188.842 215.775 200.012 212.052Z" fill="#5A677A"/>
<path d="M184.653 175.027C189.3 173.503 196.483 172.776 203.735 176.681C213.415 181.894 213.974 194.056 213.043 199.486C234.638 205.071 266.099 226.325 279.131 236.253C293.403 248.043 324.461 275.161 334.514 289.309C344.567 303.458 331.256 300.479 323.344 297.221C262.655 267.063 215.835 227.876 200.012 212.052C188.842 215.775 179.223 208.949 175.81 205.071C171.442 199.023 170.89 193.442 172.127 188.782M184.653 175.027C183.097 175.537 181.825 176.136 180.93 176.681C179.908 177.372 178.78 178.292 177.672 179.413M184.653 175.027C172.553 160.996 146.955 130.42 141.37 120.367C140.905 115.558 138.764 106.126 133.924 106.871C127.874 107.801 127.874 113.386 128.804 115.713C129.735 118.041 133.459 123.16 134.389 123.625C140.129 132.738 156.822 156.653 177.672 179.413M177.672 179.413C176.603 180.495 175.551 181.765 174.63 183.197M174.63 183.197C158.114 168.925 123.499 138.053 117.169 128.745C117.014 127.038 115.959 123.625 112.981 123.625C110.002 123.625 107.861 126.633 107.861 128.745C107.861 130.606 110.468 133.399 111.584 133.399C112.981 133.399 134.468 164.116 172.127 188.782M174.63 183.197C173.564 184.854 172.671 186.729 172.127 188.782" stroke="#5A677A"/>
</svg>
