<svg width="1280" height="720" viewBox="0 0 1280 720" fill="none" xmlns="http://www.w3.org/2000/svg">
<g clip-path="url(#clip0_5_23)">
<rect width="1280" height="720" fill="#C9E4C3"/>
<path opacity="0.88" d="M940.285 235.681C968.846 208.751 999.244 202.045 1025.63 204.713C1051.9 207.37 1074.1 219.306 1086.59 229.568L1086.83 229.765L1087.01 230.014C1101.08 249.039 1101.04 267.369 1096.87 284.589C1094.8 293.125 1091.69 301.458 1088.83 309.41C1085.94 317.428 1083.29 325.054 1081.96 332.443C1080.21 342.144 1079.56 348.631 1079.84 353.778C1080.12 358.837 1081.29 362.694 1083.38 367.124C1087.52 375.927 1095.84 387.861 1106.82 415.064C1115.83 437.388 1116.56 461.477 1113.89 482.416C1111.25 503.128 1105.25 520.944 1100.42 531.235C1095.74 560.891 1095.94 578.03 1100.1 593.279C1104.32 608.745 1112.6 622.38 1124.71 645.334C1144.54 682.924 1128.16 718.77 1117.45 732.068L1116.7 733H947.396L946.728 731.542C941.964 721.147 943.059 706.603 946.008 693.14C948.988 679.536 954.006 666.41 957.736 658.44L957.986 657.906L958.449 657.54C959.98 656.328 962.975 652.637 966.002 645.577C968.995 638.6 971.94 628.507 973.516 614.716C975.041 601.373 970.931 587.118 965.091 574.688C959.264 562.288 951.848 551.986 947.128 546.657C941.999 540.866 938.805 533.143 936.961 524.769C935.114 516.377 934.585 507.17 934.908 498.24C935.55 480.482 939.586 463.298 943.79 455.333C951.104 441.473 952.581 426.354 951.459 413.468C950.332 400.514 946.611 390.135 943.888 385.838C930.837 365.241 925.205 343.589 923.611 325.001C922.021 306.461 924.436 290.802 927.657 282.13C932.782 268.331 937.718 246.333 939.547 237.019L939.702 236.231L940.285 235.681Z" fill="#5AD49F" stroke="#8EF5C5" stroke-width="5"/>
<path opacity="0.88" d="M187.676 236.01C216.237 209.08 246.636 202.374 273.018 205.042C299.29 207.699 321.493 219.635 333.979 229.897L334.217 230.094L334.401 230.343C348.475 249.368 348.434 267.698 344.258 284.918C342.188 293.454 339.085 301.787 336.22 309.739C333.33 317.758 330.684 325.383 329.352 332.772C327.602 342.473 326.954 348.96 327.233 354.107C327.508 359.166 328.683 363.023 330.767 367.453C334.906 376.256 343.228 388.191 354.209 415.394C363.22 437.717 363.954 461.806 361.283 482.745C358.641 503.457 352.642 521.273 347.807 531.564C343.134 561.22 343.331 578.359 347.49 593.608C351.708 609.074 359.995 622.709 372.103 645.663C391.93 683.253 375.546 719.099 364.839 732.397L364.088 733.329H194.787L194.119 731.871C189.355 721.476 190.45 706.932 193.399 693.469C196.379 679.865 201.397 666.739 205.127 658.77L205.377 658.235L205.84 657.869C207.371 656.657 210.366 652.966 213.394 645.906C216.386 638.929 219.331 628.836 220.907 615.045C222.432 601.702 218.322 587.447 212.482 575.018C206.656 562.617 199.239 552.315 194.52 546.986C189.39 541.195 186.197 533.472 184.353 525.098C182.505 516.706 181.976 507.499 182.299 498.569C182.941 480.811 186.977 463.627 191.181 455.662C198.495 441.802 199.972 426.684 198.851 413.797C197.723 400.843 194.002 390.464 191.279 386.167C178.228 365.57 172.596 343.918 171.002 325.33C169.412 306.79 171.827 291.131 175.048 282.459C180.173 268.66 185.109 246.662 186.938 237.348L187.093 236.561L187.676 236.01Z" fill="#5AD49F" stroke="#8EF5C5" stroke-width="5"/>
<path d="M341 236C315 204.275 235 186.051 186 236" stroke="black" stroke-width="19" stroke-linecap="round"/>
<path d="M1093 236C1067 204.275 987 186.051 938 236" stroke="black" stroke-width="19" stroke-linecap="round"/>
<path d="M246 85L385 185.5" stroke="black" stroke-width="12" stroke-linecap="round"/>
<path d="M1032.5 85L893.5 185.5" stroke="black" stroke-width="12" stroke-linecap="round"/>
<path d="M724.629 513.5C697.429 496.3 664.963 493 652.129 493.5C639.296 493 606.83 496.299 579.63 513.499C565.63 521.333 531.231 532.299 505.631 513.499C480.031 494.699 478.631 458.333 481.131 442.5C485.964 412.666 526.931 353 652.129 353C777.329 353 818.296 412.667 823.129 442.5C825.629 458.333 824.229 494.7 798.629 513.5C773.029 532.3 738.629 521.333 724.629 513.5Z" fill="#396337"/>
<path d="M512.13 398H792.129C780.462 382.833 734.629 352.8 644.629 354C614.963 354 546.93 362.8 512.13 398Z" fill="white" stroke="black" stroke-width="12" stroke-linecap="round"/>
<path d="M708.629 455.5C758.629 452.3 801.462 476.5 816.629 489C808.229 509.4 789.462 517.833 781.129 519.5C768.796 522.166 737.029 522.6 708.629 503C680.229 483.4 633.13 489.833 613.13 495.5C624.13 483.5 658.629 458.7 708.629 455.5Z" fill="#A2B26A" stroke="#A2B26A" stroke-width="12" stroke-linecap="round"/>
<path d="M724.629 513.5C697.429 496.3 664.963 493 652.129 493.5C639.296 493 606.83 496.299 579.63 513.499C565.63 521.333 531.231 532.299 505.631 513.499C480.031 494.699 478.631 458.333 481.131 442.5C485.964 412.666 526.931 353 652.129 353C777.329 353 818.296 412.667 823.129 442.5C825.629 458.333 824.229 494.7 798.629 513.5C773.029 532.3 738.629 521.333 724.629 513.5Z" stroke="black" stroke-width="12" stroke-linecap="round"/>
</g>
<defs>
<clipPath id="clip0_5_23">
<rect width="1280" height="720" fill="white"/>
</clipPath>
</defs>
</svg>
