<svg width="1280" height="720" viewBox="0 0 1280 720" fill="none" xmlns="http://www.w3.org/2000/svg">
<rect width="1280" height="720" fill="#C9E4C3"/>
<path d="M103.741 196.774L132.423 167.261L164.845 134.423H230.106L279.156 182.641L327.79 134.007H393.051L425.058 166.845L454.987 196.774L425.058 264.945L360.213 330.622L278.74 411.678L197.268 330.622L132.423 264.945L103.741 196.774Z" fill="url(#paint0_linear_7_100)"/>
<path d="M229.993 102H164.997V134.589H132.498V167.178H100V264.945H132.498V297.534H164.997V330.123H197.495V362.712H229.993V395.301H262.491V427.89H294.99V395.301H327.488V362.712H359.986V330.123H392.485V297.534H424.983V264.945H457.481V167.178H424.983V134.589H392.485V102H327.488V134.589H294.99V167.178H262.491V134.589H229.993V102ZM229.993 134.589V167.178H262.491V199.767H294.99V167.178H327.488V134.589H392.485V167.178H424.983V264.945H392.485V297.534H359.986V330.123H327.488V362.712H294.99V395.301H262.491V362.712H229.993V330.123H197.495V297.534H164.997V264.945H132.498V167.178H164.997V134.589H229.993Z" fill="black"/>
<path d="M825.741 196.774L854.423 167.261L886.845 134.423H952.106L1001.16 182.641L1049.79 134.007H1115.05L1147.06 166.845L1176.99 196.774L1147.06 264.945L1082.21 330.622L1000.74 411.678L919.268 330.622L854.423 264.945L825.741 196.774Z" fill="url(#paint1_linear_7_100)"/>
<path d="M951.993 102H886.997V134.589H854.498V167.178H822V264.945H854.498V297.534H886.997V330.123H919.495V362.712H951.993V395.301H984.491V427.89H1016.99V395.301H1049.49V362.712H1081.99V330.123H1114.48V297.534H1146.98V264.945H1179.48V167.178H1146.98V134.589H1114.48V102H1049.49V134.589H1016.99V167.178H984.491V134.589H951.993V102ZM951.993 134.589V167.178H984.491V199.767H1016.99V167.178H1049.49V134.589H1114.48V167.178H1146.98V264.945H1114.48V297.534H1081.99V330.123H1049.49V362.712H1016.99V395.301H984.491V362.712H951.993V330.123H919.495V297.534H886.997V264.945H854.498V167.178H886.997V134.589H951.993Z" fill="black"/>
<rect x="17" y="449" width="30" height="30" fill="black"/>
<rect x="47" y="419" width="30" height="30" fill="black"/>
<rect x="74" y="449" width="30" height="30" fill="black"/>
<rect x="104" y="419" width="30" height="30" fill="black"/>
<rect x="131" y="449" width="30" height="30" fill="black"/>
<rect x="606" y="532" width="68" height="87" fill="#396337"/>
<rect x="606" y="619" width="68" height="30" fill="black"/>
<rect x="606" y="504" width="68" height="30" fill="black"/>
<rect x="576" y="532" width="30" height="87" fill="black"/>
<rect x="674" y="532" width="30" height="87" fill="black"/>
<rect x="1119" y="449" width="30" height="30" fill="black"/>
<rect x="1149" y="419" width="30" height="30" fill="black"/>
<rect x="1176" y="449" width="30" height="30" fill="black"/>
<rect x="1206" y="419" width="30" height="30" fill="black"/>
<rect x="1233" y="449" width="30" height="30" fill="black"/>
<defs>
<linearGradient id="paint0_linear_7_100" x1="279.364" y1="134.007" x2="279.364" y2="411.678" gradientUnits="userSpaceOnUse">
<stop stop-color="#FF0000"/>
<stop offset="1" stop-color="#B70000"/>
</linearGradient>
<linearGradient id="paint1_linear_7_100" x1="1001.36" y1="134.007" x2="1001.36" y2="411.678" gradientUnits="userSpaceOnUse">
<stop stop-color="#FF0000"/>
<stop offset="1" stop-color="#B70000"/>
</linearGradient>
</defs>
</svg>
