<svg width="321" height="348" viewBox="0 0 321 348" fill="none" xmlns="http://www.w3.org/2000/svg">
<path d="M239.908 248.189C203.87 295.463 151.818 301.202 132.212 299.948C121.112 300.337 92.9045 296.791 73.0631 285.488C48.2615 271.359 19.8009 237.932 23.7913 177.84C27.7818 117.749 65.2098 77.1303 98.7186 54.8563C125.526 37.037 165.428 35.423 182.028 36.8434C197.898 38.922 235.861 49.4386 260.753 74.877C285.644 100.315 288.882 142.651 287.39 160.639C284.317 191.505 254.455 231.867 239.908 248.189Z" stroke="#63512E" stroke-width="7"/>
<path d="M239.908 248.189C203.87 295.463 151.818 301.202 132.212 299.948C121.924 300.309 96.9396 297.289 77.5416 287.845C76.0107 287.1 74.5145 286.315 73.0632 285.488C48.2615 271.359 19.8009 237.932 23.7914 177.84C27.278 125.337 56.2906 87.6991 85.9123 64.1741C117.274 53.2898 154.323 75.7593 168.926 88.3546C195.378 91.9105 255.795 113.126 285.854 169.543C278.853 198.861 253.091 233.397 239.908 248.189Z" fill="#FF5B14"/>
<path d="M77.5416 287.845C76.0107 287.1 74.5145 286.315 73.0632 285.488C48.2615 271.359 19.8009 237.932 23.7914 177.84C27.278 125.337 56.2906 87.6991 85.9123 64.1741C117.274 53.2898 154.323 75.7593 168.926 88.3546M77.5416 287.845C96.9396 297.289 121.924 300.309 132.212 299.948C151.818 301.202 203.87 295.463 239.908 248.189C253.091 233.397 278.853 198.861 285.854 169.543C255.795 113.126 195.378 91.9105 168.926 88.3546M77.5416 287.845C78.1328 237.441 97.2375 126.977 168.926 88.3546" stroke="#63512E" stroke-width="7"/>
<path d="M260.752 74.8774C285.644 100.316 288.882 142.652 287.39 160.64C286.725 167.319 284.806 174.442 282.058 181.671C275.618 162.781 244.636 118.236 172.233 91.1755C153.167 79.5281 107.323 59.4262 76.4696 72.1984C83.8111 65.5251 91.3593 59.7485 98.7184 54.8567C125.525 37.0374 165.427 35.4235 182.028 36.8439C197.898 38.9224 235.861 49.439 260.752 74.8774Z" fill="#63472E" stroke="#63512E" stroke-width="7"/>
<path d="M183.241 292.871L188.109 326.042" stroke="#63512E" stroke-width="10" stroke-linecap="round"/>
<path d="M224.806 49.5735C223.957 39.0918 222.85 15.9753 225.223 7.36238M243.934 61.6426C251.284 53.5387 268.744 35.8517 279.777 29.9347" stroke="#63512E" stroke-width="10" stroke-linecap="round"/>
<path d="M242.906 246.097C248.716 248.137 264.468 250.535 281.002 243.811" stroke="#63512E" stroke-width="10" stroke-linecap="round"/>
<path d="M273.673 202.324C279.791 204.594 294.565 207.274 304.713 199.834" stroke="#63512E" stroke-width="10" stroke-linecap="round"/>
<ellipse cx="143.491" cy="249.355" rx="31.4825" ry="35.9435" transform="rotate(12.5171 143.491 249.355)" fill="#63512E"/>
<path d="M54.8761 186.915C43.63 173.359 29.2936 178.548 23.5312 182.838C22.6933 205.185 26.4272 223.685 32.7304 238.745C42.9316 238.424 51.769 230.502 54.9126 226.58C59.5864 219.007 66.1223 200.471 54.8761 186.915Z" fill="#63512E" stroke="#63512E" stroke-width="7"/>
<ellipse cx="220.34" cy="204.996" rx="31.4825" ry="40.3251" transform="rotate(20.4467 220.34 204.996)" fill="#63512E"/>
<ellipse cx="74.3551" cy="119.631" rx="31.4825" ry="40.3251" transform="rotate(30.9067 74.3551 119.631)" fill="#63512E"/>
<ellipse cx="158.128" cy="163.495" rx="33.6127" ry="38.5484" transform="rotate(30.5297 158.128 163.495)" fill="#63512E"/>
</svg>
