<svg width="1280" height="720" viewBox="0 0 1280 720" fill="none" xmlns="http://www.w3.org/2000/svg">
<rect width="1280" height="720" fill="#C9E4C3"/>
<path d="M285 395L398.5 281.5L285 168" stroke="black" stroke-width="44" stroke-linecap="round"/>
<path d="M994.5 168L881 281.5L994.5 395" stroke="black" stroke-width="44" stroke-linecap="round"/>
<path d="M639.946 622.983C625.315 622.983 612.247 620.462 600.741 615.419C589.307 610.376 580.251 603.381 573.575 594.432C566.97 585.412 563.419 574.972 562.922 563.111H596.374C596.8 569.574 598.966 575.185 602.872 579.943C606.849 584.631 612.034 588.253 618.426 590.81C624.818 593.366 631.92 594.645 639.733 594.645C648.327 594.645 655.926 593.153 662.531 590.17C669.207 587.187 674.428 583.033 678.192 577.706C681.956 572.308 683.838 566.094 683.838 559.062C683.838 551.747 681.956 545.32 678.192 539.78C674.499 534.169 669.065 529.766 661.892 526.57C654.79 523.374 646.196 521.776 636.111 521.776H617.68V494.929H636.111C644.207 494.929 651.31 493.473 657.418 490.561C663.597 487.649 668.426 483.601 671.906 478.416C675.386 473.161 677.126 467.017 677.126 459.986C677.126 453.239 675.599 447.379 672.545 442.408C669.563 437.365 665.301 433.423 659.761 430.582C654.293 427.741 647.83 426.321 640.372 426.321C633.27 426.321 626.629 427.635 620.45 430.263C614.342 432.82 609.371 436.513 605.536 441.342C601.7 446.101 599.641 451.818 599.357 458.494H567.503C567.858 446.705 571.338 436.335 577.943 427.386C584.619 418.437 593.426 411.442 604.364 406.399C615.301 401.357 627.446 398.835 640.798 398.835C654.79 398.835 666.864 401.57 677.02 407.038C687.247 412.436 695.131 419.645 700.67 428.665C706.281 437.685 709.051 447.557 708.98 458.281C709.051 470.497 705.642 480.866 698.753 489.389C691.935 497.912 682.844 503.629 671.48 506.541V508.246C685.969 510.447 697.19 516.2 705.145 525.504C713.17 534.808 717.148 546.349 717.077 560.128C717.148 572.131 713.81 582.891 707.062 592.408C700.386 601.925 691.26 609.418 679.683 614.886C668.107 620.284 654.861 622.983 639.946 622.983Z" fill="black"/>
</svg>
