<svg width="1280" height="720" viewBox="0 0 1280 720" fill="none" xmlns="http://www.w3.org/2000/svg">
<rect width="1280" height="720" fill="#C9E4C3"/>
<path d="M530.371 567.5C557.571 550.3 590.038 547 602.871 547.5C615.704 547 648.171 550.3 675.371 567.5C689.371 575.333 723.77 586.3 749.37 567.5C774.97 548.7 776.37 512.333 773.87 496.5C769.037 466.667 728.07 407 602.871 407C477.671 407 436.704 466.667 431.871 496.5C429.371 512.333 430.771 548.7 456.371 567.5C481.971 586.3 516.371 575.333 530.371 567.5Z" fill="#396337"/>
<path d="M742.871 452H462.871C474.538 436.833 520.371 406.8 610.371 408C640.038 408 708.071 416.8 742.871 452Z" fill="white" stroke="black" stroke-width="12" stroke-linecap="round"/>
<path d="M546.371 509.5C496.371 506.3 453.538 530.5 438.371 543C446.771 563.4 465.538 571.833 473.871 573.5C486.204 576.167 517.971 576.6 546.371 557C574.771 537.4 621.871 543.833 641.871 549.5C630.871 537.5 596.371 512.7 546.371 509.5Z" fill="#A2B26A" stroke="#A2B26A" stroke-width="12" stroke-linecap="round"/>
<path d="M530.371 567.5C557.571 550.3 590.038 547 602.871 547.5C615.704 547 648.171 550.3 675.371 567.5C689.371 575.333 723.77 586.3 749.37 567.5C774.97 548.7 776.37 512.333 773.87 496.5C769.037 466.667 728.07 407 602.871 407C477.671 407 436.704 466.667 431.871 496.5C429.371 512.333 430.771 548.7 456.371 567.5C481.971 586.3 516.371 575.333 530.371 567.5Z" stroke="black" stroke-width="12" stroke-linecap="round"/>
<ellipse cx="333.5" cy="271" rx="37.5" ry="43" fill="black"/>
<ellipse cx="945.5" cy="271" rx="37.5" ry="43" fill="black"/>
<path d="M282 141L421 241.5" stroke="black" stroke-width="19" stroke-linecap="round"/>
<path d="M968.5 141L829.5 241.5" stroke="black" stroke-width="19" stroke-linecap="round"/>
</svg>
