<svg width="1280" height="720" viewBox="0 0 1280 720" fill="none" xmlns="http://www.w3.org/2000/svg">
<rect width="1280" height="720" fill="#C9E4C3"/>
<path d="M592.888 569.611C610.376 555.828 631.249 553.184 639.5 553.585C647.751 553.184 668.625 555.828 686.112 569.611C695.113 575.887 717.23 584.675 733.688 569.611C750.147 554.546 751.047 525.405 749.44 512.717C746.332 488.812 719.994 441 639.5 441C559.006 441 532.668 488.812 529.56 512.718C527.953 525.405 528.853 554.546 545.312 569.611C561.771 584.675 583.887 575.888 592.888 569.611Z" fill="#396337"/>
<path d="M729.51 477.059H549.491C556.992 464.906 586.459 440.84 644.322 441.801C663.396 441.801 707.136 448.853 729.51 477.059Z" fill="white" stroke="black" stroke-width="12" stroke-linecap="round"/>
<path d="M603.175 523.135C571.028 520.571 543.49 539.962 533.739 549.979C539.139 566.326 551.205 573.083 556.563 574.419C564.492 576.556 584.916 576.903 603.175 561.197C621.434 545.491 651.716 550.646 664.574 555.187C657.502 545.571 635.321 525.699 603.175 523.135Z" fill="#A2B26A" stroke="#A2B26A" stroke-width="12" stroke-linecap="round"/>
<path d="M592.888 569.611C610.376 555.828 631.249 553.184 639.5 553.585C647.751 553.184 668.625 555.828 686.112 569.611C695.113 575.887 717.23 584.675 733.688 569.611C750.147 554.546 751.047 525.405 749.44 512.717C746.332 488.812 719.994 441 639.5 441C559.006 441 532.668 488.812 529.56 512.718C527.953 525.405 528.853 554.546 545.312 569.611C561.771 584.675 583.887 575.888 592.888 569.611Z" stroke="black" stroke-width="12" stroke-linecap="round"/>
<path d="M169.036 355C170.575 352.333 174.424 352.333 175.964 355L204.11 403.75C205.65 406.417 203.725 409.75 200.646 409.75H144.354C141.275 409.75 139.35 406.417 140.89 403.75L169.036 355Z" fill="#2EB662"/>
<path d="M159.036 476C160.575 473.333 164.424 473.333 165.964 476L194.11 524.75C195.65 527.417 193.725 530.75 190.646 530.75H134.354C131.275 530.75 129.35 527.417 130.89 524.75L159.036 476Z" fill="#2EB662"/>
<path d="M152.036 592C153.575 589.333 157.424 589.333 158.964 592L187.11 640.75C188.65 643.417 186.725 646.75 183.646 646.75H127.354C124.275 646.75 122.35 643.417 123.89 640.75L152.036 592Z" fill="#2EB662"/>
<path d="M191 269C232.265 322.215 359.232 352.786 437 269" stroke="black" stroke-width="19" stroke-linecap="round"/>
<path d="M205 175.696C249.4 184.868 331.6 145.1 367 74" stroke="black" stroke-width="14" stroke-linecap="round"/>
<path d="M1110.96 355C1109.42 352.333 1105.58 352.333 1104.04 355L1075.89 403.75C1074.35 406.417 1076.27 409.75 1079.35 409.75H1135.65C1138.73 409.75 1140.65 406.417 1139.11 403.75L1110.96 355Z" fill="#2EB662"/>
<path d="M1120.96 476C1119.42 473.333 1115.58 473.333 1114.04 476L1085.89 524.75C1084.35 527.417 1086.27 530.75 1089.35 530.75H1145.65C1148.72 530.75 1150.65 527.417 1149.11 524.75L1120.96 476Z" fill="#2EB662"/>
<path d="M1127.96 592C1126.42 589.333 1122.58 589.333 1121.04 592L1092.89 640.75C1091.35 643.417 1093.27 646.75 1096.35 646.75H1152.65C1155.73 646.75 1157.65 643.417 1156.11 640.75L1127.96 592Z" fill="#2EB662"/>
<path d="M1089 269C1047.74 322.215 920.768 352.786 843 269" stroke="black" stroke-width="19" stroke-linecap="round"/>
<path d="M1075 175.696C1030.6 184.868 948.4 145.1 913 74" stroke="black" stroke-width="14" stroke-linecap="round"/>
</svg>
