<svg width="1280" height="720" viewBox="0 0 1280 720" fill="none" xmlns="http://www.w3.org/2000/svg">
<rect width="1280" height="720" fill="#C9E4C3"/>
<ellipse cx="639.5" cy="537" rx="74.5" ry="83" fill="#396337"/>
<path d="M640 458.5C656.133 458.5 671.06 466.619 682.717 478.139C692.67 487.974 699.866 499.933 703.199 510.5H577.572C579.922 496.63 587.879 484.243 598.68 474.978C610.744 464.629 625.984 458.5 640 458.5Z" fill="white" stroke="black" stroke-width="9"/>
<path d="M639.5 460C676.738 460 708 493.848 708 537C708 580.152 676.738 614 639.5 614C602.262 614 571 580.152 571 537C571 493.848 602.262 460 639.5 460Z" stroke="black" stroke-width="12"/>
<path d="M334.186 113.147C335.552 108.282 342.448 108.282 343.814 113.147L377.478 233.059C377.95 234.738 379.262 236.05 380.941 236.522L500.853 270.186C505.718 271.552 505.718 278.448 500.853 279.814L380.941 313.478C379.262 313.95 377.95 315.262 377.478 316.941L343.814 436.853C342.448 441.718 335.552 441.718 334.186 436.853L300.522 316.941C300.05 315.262 298.738 313.95 297.059 313.478L177.147 279.814C172.282 278.448 172.282 271.552 177.147 270.186L297.059 236.522C298.738 236.05 300.05 234.738 300.522 233.059L334.186 113.147Z" fill="#FFA800"/>
<path d="M936.186 113.147C937.552 108.282 944.448 108.282 945.814 113.147L979.478 233.059C979.95 234.738 981.262 236.05 982.941 236.522L1102.85 270.186C1107.72 271.552 1107.72 278.448 1102.85 279.814L982.941 313.478C981.262 313.95 979.95 315.262 979.478 316.941L945.814 436.853C944.448 441.718 937.552 441.718 936.186 436.853L902.522 316.941C902.05 315.262 900.738 313.95 899.059 313.478L779.147 279.814C774.282 278.448 774.282 271.552 779.147 270.186L899.059 236.522C900.738 236.05 902.05 234.738 902.522 233.059L936.186 113.147Z" fill="#FFA800"/>
</svg>
