<svg width="1280" height="720" viewBox="0 0 1280 720" fill="none" xmlns="http://www.w3.org/2000/svg">
<rect width="1280" height="720" fill="#C9E4C3"/>
<path d="M285.676 116.058C288.976 107.543 301.024 107.543 304.324 116.058L337.659 202.065C339.078 205.726 342.507 208.218 346.427 208.436L438.527 213.561C447.645 214.069 451.368 225.527 444.289 231.297L372.792 289.578C369.749 292.059 368.439 296.09 369.443 299.886L393.028 389.061C395.364 397.89 385.616 404.971 377.942 400.023L300.419 350.034C297.12 347.907 292.88 347.907 289.581 350.034L212.058 400.023C204.384 404.971 194.636 397.89 196.972 389.061L220.557 299.886C221.561 296.09 220.251 292.059 217.208 289.578L145.711 231.297C138.632 225.527 142.355 214.069 151.473 213.561L243.573 208.436C247.493 208.218 250.922 205.726 252.341 202.065L285.676 116.058Z" fill="#FFB800"/>
<path d="M975.676 116.058C978.976 107.543 991.024 107.543 994.324 116.058L1027.66 202.065C1029.08 205.726 1032.51 208.218 1036.43 208.436L1128.53 213.561C1137.64 214.069 1141.37 225.527 1134.29 231.297L1062.79 289.578C1059.75 292.059 1058.44 296.09 1059.44 299.886L1083.03 389.061C1085.36 397.89 1075.62 404.971 1067.94 400.023L990.419 350.034C987.12 347.907 982.88 347.907 979.581 350.034L902.058 400.023C894.384 404.971 884.636 397.89 886.972 389.061L910.557 299.886C911.561 296.09 910.251 292.059 907.208 289.578L835.711 231.297C828.632 225.527 832.355 214.069 841.473 213.561L933.573 208.436C937.493 208.218 940.922 205.726 942.341 202.065L975.676 116.058Z" fill="#FFB800"/>
<path d="M712.629 468.38C685.429 485.58 652.962 488.88 640.129 488.38C627.296 488.88 594.829 485.581 567.629 468.381C553.629 460.547 519.23 449.581 493.63 468.381C468.03 487.181 466.63 523.547 469.13 539.381C473.963 569.214 514.93 628.88 640.129 628.88C765.329 628.88 806.296 569.214 811.129 539.38C813.629 523.547 812.229 487.18 786.629 468.38C761.029 449.581 726.629 460.547 712.629 468.38Z" fill="#396337"/>
<path d="M643.5 562.5C585.5 562.5 553.167 590.789 538 603.289C610.4 637.92 703.833 617.718 741.5 603.289C730.5 591.289 693.602 562.5 643.5 562.5Z" fill="#A2B26A" stroke="#A2B26A" stroke-width="12" stroke-linecap="round"/>
<path d="M712.629 468.38C685.429 485.58 652.962 488.88 640.129 488.38C627.296 488.88 594.829 485.581 567.629 468.381C553.629 460.547 519.23 449.581 493.63 468.381C475.229 481.894 469.331 504.484 468.398 522L811.861 522C810.928 504.484 805.03 481.894 786.629 468.381C761.029 449.581 726.629 460.547 712.629 468.38Z" fill="white" stroke="black" stroke-width="9" stroke-linecap="round"/>
<path d="M712.629 468.38C685.429 485.58 652.962 488.88 640.129 488.38C627.296 488.88 594.829 485.581 567.629 468.381C553.629 460.547 519.23 449.581 493.63 468.381C468.03 487.181 466.63 523.547 469.13 539.381C473.963 569.214 514.93 628.88 640.129 628.88C765.329 628.88 806.296 569.214 811.129 539.38C813.629 523.547 812.229 487.18 786.629 468.38C761.029 449.581 726.629 460.547 712.629 468.38Z" stroke="black" stroke-width="12" stroke-linecap="round"/>
</svg>
