<svg width="1280" height="720" viewBox="0 0 1280 720" fill="none" xmlns="http://www.w3.org/2000/svg">
<rect width="1280" height="720" fill="#C9E4C3"/>
<path d="M680.038 438.164C677.493 396.393 692.896 379.058 708.667 374.832C724.437 370.606 746.766 377.831 765.448 415.279C780.787 446.025 807.288 449.666 825.403 434.071C842.219 419.593 831.826 388.905 827.108 377.7C818.14 356.608 772.758 293.429 692.609 314.904C612.46 336.38 605.069 413.7 607.849 436.45C609.365 448.512 615.709 480.286 637.511 484.416C660.997 488.864 682.127 472.461 680.038 438.164Z" fill="#396337" stroke="black" stroke-width="8" stroke-linecap="round"/>
<path d="M692.609 314.904C721.709 307.107 746.227 310.469 766.082 318.925C766.945 319.293 766.844 320.525 765.939 320.768L632.131 356.621C631.227 356.863 630.524 355.848 631.085 355.099C643.998 337.862 663.508 322.702 692.609 314.904Z" fill="#D9D9D9" stroke="black" stroke-width="8" stroke-linecap="round"/>
<path d="M282.798 432.694L333.439 396.359C334.208 395.807 335.243 396.534 334.984 397.445L324.345 434.908C324.081 435.836 325.155 436.562 325.919 435.972L399.756 378.887C400.543 378.279 401.639 379.067 401.312 380.006L392.299 405.948C391.983 406.857 393.008 407.644 393.804 407.104L457.025 364.269" stroke="black" stroke-width="10" stroke-linecap="round"/>
<path d="M926.104 260.32L976.745 223.986C977.515 223.434 978.549 224.161 978.29 225.071L967.651 262.534C967.387 263.462 968.461 264.189 969.225 263.599L1043.06 206.513C1043.85 205.905 1044.94 206.693 1044.62 207.633L1035.6 233.575C1035.29 234.484 1036.31 235.27 1037.11 234.731L1100.33 191.895" stroke="black" stroke-width="10" stroke-linecap="round"/>
<ellipse cx="343.676" cy="301.984" rx="46.6335" ry="68.2079" transform="rotate(-15 343.676 301.984)" fill="black"/>
<ellipse cx="46.6336" cy="68.2068" rx="46.6336" ry="68.2068" transform="matrix(-0.965926 0.258819 0.258819 0.965926 1015.08 51.4653)" fill="black"/>
</svg>
