<svg width="509" height="452" viewBox="0 0 509 452" fill="none" xmlns="http://www.w3.org/2000/svg">
<path d="M218.301 255.321C221.702 278.101 228.019 290.508 232.426 294.821C260.426 273.155 315.326 228.021 310.926 220.821C306.526 213.621 305.426 200.488 305.426 194.821C308.626 164.421 304.093 140.821 301.426 132.821C297.759 120.821 280.526 97.0214 240.926 97.8214C201.326 98.6214 182.426 121.488 177.926 132.821C172.065 150.795 173.838 164.188 178.233 175.865C161.033 164.665 136.259 156.155 126.426 153.321C116.759 150.488 95.526 148.021 87.926 160.821C80.326 173.621 91.0927 195.155 97.426 204.321C106.593 218.321 132.626 250.221 163.426 265.821C194.226 281.421 212.843 265.321 218.301 255.321Z" fill="#60F97A"/>
<path d="M217.926 182.321C214.777 213.637 215.658 237.613 218.301 255.321M218.301 255.321C221.702 278.101 228.019 290.508 232.426 294.821C260.426 273.155 315.326 228.021 310.926 220.821C306.526 213.621 305.426 200.488 305.426 194.821C308.626 164.421 304.093 140.821 301.426 132.821C297.759 120.821 280.526 97.0214 240.926 97.8214C201.326 98.6214 182.426 121.488 177.926 132.821C170.426 155.821 175.426 171.321 182.426 185.321C188.026 196.521 184.759 209.321 182.426 214.321M218.301 255.321C212.843 265.321 194.226 281.421 163.426 265.821C132.626 250.221 106.593 218.321 97.426 204.321C91.0927 195.155 80.326 173.621 87.926 160.821C95.526 148.021 116.759 150.488 126.426 153.321C136.259 156.155 161.033 164.665 178.233 175.865" stroke="#447E41" stroke-width="6" stroke-linecap="round"/>
<path d="M218.301 255.322C221.55 277.087 227.462 289.383 231.826 294.197C232.162 294.567 232.705 294.606 233.1 294.3C261.296 272.439 315.291 227.964 310.926 220.821C306.715 213.93 305.526 201.604 305.432 195.591C305.425 195.135 305.121 194.741 304.677 194.636C293.883 192.096 278.103 193.681 271.426 194.821C235.55 202.395 220.469 233.109 217.366 247.671C217.344 247.774 217.34 247.875 217.352 247.98C217.634 250.538 217.952 252.984 218.301 255.322Z" fill="#48CF5E"/>
<path d="M178.216 175.821C179.449 179.103 180.889 182.248 182.426 185.321C183.502 187.473 184.25 189.683 184.741 191.886C184.854 192.391 184.546 192.886 184.057 193.055C175.887 195.877 168.358 205.21 166.426 230.321C165.004 248.814 175.333 263.356 182.444 270.079C183.162 270.758 182.636 272.014 181.658 271.873C176.155 271.079 170.074 269.189 163.426 265.822C151.107 259.582 139.55 250.735 129.53 241.468C129.426 241.371 129.346 241.259 129.291 241.128C124.828 230.346 119.715 204.816 134.426 187.321C149.171 169.787 166.463 170.474 173.349 173.03C173.402 173.049 173.451 173.073 173.5 173.101C175.026 173.993 176.787 174.891 178.216 175.821Z" fill="#48CF5E"/>
<path d="M267.426 132.821C238.278 135.616 222.316 166.877 217.949 182.24C217.933 182.296 217.923 182.351 217.917 182.409C217.544 186.129 217.227 189.746 216.964 193.261C216.909 193.989 216.123 194.413 215.51 194.016C208.639 189.565 197.554 177.672 199.426 159.321C200.593 142.821 212.326 109.121 249.926 106.321C258.89 105.155 280.378 106.321 294.621 120.321C298.168 124.888 300.365 129.349 301.426 132.821C302.528 136.129 303.95 142.102 305.012 150.119C305.127 150.715 305.197 151.286 305.228 151.821C305.158 151.244 305.086 150.677 305.012 150.119C303.52 142.366 294.541 130.221 267.426 132.821Z" fill="#48CF5E"/>
<path d="M178.216 175.821C176.787 174.891 175.026 173.993 173.5 173.101C173.451 173.073 173.402 173.049 173.349 173.03C166.463 170.474 149.171 169.787 134.426 187.321C119.715 204.816 124.828 230.346 129.291 241.128C129.346 241.259 129.426 241.371 129.53 241.468C139.55 250.735 151.107 259.582 163.426 265.822C170.074 269.189 176.155 271.079 181.658 271.873C182.636 272.014 183.162 270.758 182.444 270.079C175.333 263.356 165.004 248.814 166.426 230.321C168.358 205.21 175.887 195.877 184.057 193.055C184.546 192.886 184.854 192.391 184.741 191.886C184.25 189.683 183.502 187.473 182.426 185.321C175.426 171.321 170.426 155.821 177.926 132.821M218.301 255.322C221.55 277.087 227.462 289.383 231.826 294.197C232.162 294.567 232.705 294.606 233.1 294.3C261.296 272.439 315.291 227.964 310.926 220.821C306.715 213.93 305.526 201.604 305.432 195.591C305.425 195.135 305.121 194.741 304.677 194.636C293.883 192.096 278.103 193.681 271.426 194.821C235.55 202.395 220.469 233.109 217.366 247.671C217.344 247.774 217.34 247.875 217.352 247.98C217.634 250.538 217.952 252.984 218.301 255.322ZM301.426 132.821C302.605 136.359 304.149 142.946 305.228 151.821C304.794 144.321 296.626 130.021 267.426 132.821C238.278 135.616 222.316 166.877 217.949 182.24C217.933 182.296 217.923 182.351 217.917 182.409C217.544 186.129 217.227 189.746 216.964 193.261C216.909 193.989 216.123 194.413 215.51 194.016C208.639 189.565 197.554 177.672 199.426 159.321C200.593 142.821 212.326 109.121 249.926 106.321C258.89 105.155 280.378 106.321 294.621 120.321C298.168 124.888 300.365 129.349 301.426 132.821Z" stroke="#447E41" stroke-width="6" stroke-linecap="round"/>
<path d="M499.426 354.821C519.826 289.621 478.926 246.988 455.926 233.821C393.526 190.221 316.26 209.321 285.426 224.321C242.626 247.521 229.926 285.321 228.926 301.321C226.926 326.655 231.926 384.721 267.926 414.321C303.926 443.921 351.926 448.655 371.426 447.321C419.426 443.721 454.426 423.821 465.926 414.321C484.326 400.321 495.926 368.821 499.426 354.821Z" fill="#60F97A" stroke="#447E41" stroke-width="7" stroke-linecap="round"/>
<path d="M391.926 363.821C404.26 369.321 433.626 375.921 452.426 358.321" stroke="#447E41" stroke-width="10" stroke-linecap="round"/>
<path d="M352.733 349.44C351.24 347.146 348.946 346.235 346.98 345.986C345.272 345.77 343.599 346.55 342.47 347.85C338.743 352.144 341.351 355.237 344.029 356.731C344.813 357.168 345.707 357.381 346.605 357.369C350.383 357.318 352.295 355.27 353.126 353.351C353.676 352.08 353.487 350.601 352.733 349.44Z" fill="#447E41" stroke="#447E41" stroke-width="4"/>
<path d="M480.448 332.462C480.14 331.293 479.598 330.413 478.93 329.759C476.228 327.111 470.868 328.418 470.161 332.134C469.093 337.754 473.603 338.574 475.992 338.281C478.675 337.68 479.931 335.907 480.411 334.549C480.648 333.88 480.629 333.148 480.448 332.462Z" fill="#447E41" stroke="#447E41" stroke-width="4"/>
</svg>
