<svg width="617" height="515" viewBox="0 0 617 515" fill="none" xmlns="http://www.w3.org/2000/svg">
<path d="M375.017 88.7621C317.177 147.224 286.584 195.97 278.735 212.394L277.096 215.939C279.523 215.979 289.719 219.39 311.096 232.711C332.472 246.032 343.981 269.797 347.064 280.014C390.505 214.953 468.809 127.127 502.531 91.3471C514.279 75.9485 533.982 40.2665 518.808 20.7281C503.634 1.18962 474.992 9.17494 462.567 15.6099C420.93 34.9821 388.157 73.3709 375.326 88.4005L375.017 88.7621Z" fill="#60F97A" stroke="#447E41" stroke-width="6"/>
<path d="M311.096 232.711C332.472 246.032 343.981 269.797 347.064 280.013C355.99 266.646 366.387 252.317 377.568 237.676C377.934 226.707 374.289 201.181 356.776 186.825C346.925 178.421 322.224 164.196 302.224 174.525C289.853 192.015 282.146 205.257 278.735 212.394L277.096 215.939C279.523 215.979 289.72 219.39 311.096 232.711Z" fill="#48CF5E"/>
<path d="M385.613 141.828C403.352 152.397 410.309 181.625 411.57 194.919C421.179 183.245 430.862 171.772 440.27 160.829C439.48 148.706 433.883 121.835 417.817 111.333C409.26 103.865 386.933 90.7309 366.087 97.9336C354.036 110.509 343.284 122.561 333.782 133.85C345.85 124.797 363.438 128.617 385.613 141.828Z" fill="#48CF5E"/>
<path d="M443.582 83.8488C460.859 95.7836 465.807 120.43 466.121 131.261C475.529 120.678 484.202 111.113 491.678 103.002C494.826 92.8585 495.379 68.5202 472.402 52.315C449.425 36.1097 426.277 40.8629 417.575 45.2652C407.63 53.702 398.908 62.3294 391.721 69.9635C411.612 62.2861 434.583 76.0214 443.582 83.8488Z" fill="#48CF5E"/>
<path d="M311.096 232.711C332.472 246.032 343.981 269.797 347.064 280.013C355.99 266.646 366.387 252.317 377.568 237.676C377.934 226.707 374.289 201.181 356.776 186.825C346.925 178.421 322.224 164.196 302.224 174.525C289.853 192.015 282.146 205.257 278.735 212.394L277.096 215.939C279.523 215.979 289.72 219.39 311.096 232.711Z" stroke="#447E41" stroke-width="6"/>
<path d="M385.613 141.828C403.352 152.397 410.309 181.625 411.57 194.919C421.179 183.245 430.862 171.772 440.27 160.829C439.48 148.706 433.883 121.835 417.817 111.333C409.26 103.865 386.933 90.7309 366.087 97.9336C354.036 110.509 343.284 122.561 333.782 133.85C345.85 124.797 363.438 128.617 385.613 141.828Z" stroke="#447E41" stroke-width="6"/>
<path d="M443.582 83.8488C460.859 95.7836 465.807 120.43 466.121 131.261C475.529 120.678 484.202 111.113 491.678 103.002C494.826 92.8585 495.379 68.5202 472.402 52.315C449.425 36.1097 426.277 40.8629 417.575 45.2652C407.63 53.702 398.908 62.3294 391.721 69.9635C411.612 62.2861 434.583 76.0214 443.582 83.8488Z" stroke="#447E41" stroke-width="6"/>
<path d="M90.0051 414.746C47.4046 355.698 74.3895 298.807 93.207 277.743C141.604 212.629 226.165 205.899 262.396 210.674C313.49 219.707 339.07 253.645 345.474 269.486C356.034 294.426 370.549 354.822 344.126 396.883C317.702 438.944 270.765 459.908 250.6 465.132C200.854 477.669 158.759 469.344 143.93 463.615C120.607 455.661 98.2623 427.721 90.0051 414.746Z" fill="#60F97A" stroke="#447E41" stroke-width="7" stroke-linecap="round"/>
<path d="M201.731 387.615C191.114 397.332 163.646 413.903 138.706 402.444" stroke="#447E41" stroke-width="10" stroke-linecap="round"/>
<path d="M236.478 360C237.202 357.018 239.341 355.27 241.32 354.36C242.884 353.641 244.707 353.853 246.2 354.71C251.648 357.835 249.965 361.94 247.708 364.368C247.097 365.026 246.318 365.509 245.465 365.788C241.502 367.086 238.821 365.564 237.341 363.847C236.437 362.798 236.151 361.345 236.478 360Z" fill="#447E41" stroke="#447E41" stroke-width="4"/>
<path d="M101.663 385.813C101.567 384.496 101.819 383.4 102.282 382.497C104.122 378.91 109.982 378.424 111.949 381.944C114.922 387.266 110.639 389.615 108.125 390.124C105.165 390.425 103.285 389.008 102.356 387.784C101.927 387.219 101.715 386.521 101.663 385.813Z" fill="#447E41" stroke="#447E41" stroke-width="4"/>
</svg>
